<svg width="41" height="36" viewBox="0 0 41 36" fill="none" xmlns="http://www.w3.org/2000/svg">
<path d="M40.2135 19.6223C40.21 19.6646 40.21 19.7071 40.2135 19.7494C40.1774 20.175 40.0908 20.5949 39.9556 21.0007C39.4776 22.5856 38.4894 23.9742 37.1401 24.9566C35.7908 25.9391 34.1538 26.462 32.4764 26.4466H32.149L32.0696 26.5737C31.6907 27.3568 31.2599 28.1144 30.7801 28.8419C30.3554 29.4784 29.867 30.0713 29.322 30.6115C28.3967 31.5528 27.3454 32.3652 26.1973 33.0264C25.0633 33.6745 23.8499 34.1772 22.5866 34.5223C21.6099 34.7736 20.615 34.95 19.6108 35.0502C18.6516 35.143 17.6873 35.1725 16.7242 35.1383C16.1227 35.1217 15.5229 35.0661 14.9288 34.972C14.0927 34.8557 13.2669 34.6759 12.4589 34.4342C10.8289 33.9631 9.28765 33.2334 7.89587 32.2736C6.63742 31.3898 5.52346 30.3215 4.59266 29.1059C3.61548 27.8165 2.82742 26.398 2.25168 24.8921C1.7713 23.6397 1.39314 22.3516 1.12085 21.0399C1.02165 20.5706 0.942336 20.0622 0.853061 19.6125C0.853061 19.4756 0.783588 19.3485 0.75383 19.2116C0.664554 18.6837 0.575279 18.1557 0.505843 17.6278C0.406648 16.9434 0.327343 16.2492 0.247987 15.5551C0.247987 15.1542 0.178514 14.7534 0.148756 14.3525C0.089239 13.6877 0.0694242 13.0228 0.0495853 12.3971C0.0297463 11.7714 0.0495853 11.1456 0.0495853 10.5297C0.0495853 10.4319 0.0495853 10.3341 0.0495853 10.2461C0.0310785 10.2146 0.0145282 10.1819 0 10.1484V9.32716C0.0421244 9.25922 0.065966 9.18186 0.0693831 9.10231C0.0644985 9.03069 0.0644985 8.95874 0.0693831 8.88712C0.0929249 8.60592 0.199371 8.33765 0.375613 8.1153C0.551855 7.89296 0.790202 7.72632 1.06133 7.63577C1.25585 7.56922 1.46057 7.53617 1.66647 7.53802H11.7645C11.8499 7.55224 11.937 7.55224 12.0224 7.53802C12.0224 7.46958 12.0224 7.39128 12.0224 7.32284C12.0873 6.76065 12.224 6.20885 12.4291 5.68038C12.7842 4.7103 13.3371 3.82209 14.0536 3.0705C14.7701 2.31891 15.635 1.71974 16.5953 1.31001C17.423 0.949636 18.3104 0.741027 19.214 0.694175H19.4322H19.958H20.1266H20.6325C21.6199 0.805665 22.5745 1.11147 23.4397 1.59358C25.1314 2.5101 26.4103 4.02194 27.0207 5.82706L27.1099 6.07148C27.2091 6.07148 27.2488 5.9541 27.3083 5.88566L30.9091 1.75983C31.4363 1.14471 32.1808 0.749832 32.9921 0.655029C33.0416 0.659456 33.0915 0.659456 33.141 0.655029H33.6667H33.746C34.3597 0.758597 34.9464 0.981179 35.472 1.31001L35.6208 1.41766L35.472 1.60336L32.2581 5.37724L25.7311 13.0423C25.5625 13.2379 25.3938 13.4335 25.2153 13.6095C24.299 14.5273 23.162 15.2019 21.9102 15.5704C20.6584 15.939 19.3323 15.9895 18.0554 15.7172C16.7785 15.445 15.5921 14.8589 14.6067 14.0134C13.6213 13.168 12.8687 12.0907 12.4191 10.8817C12.4191 10.823 12.4192 10.7644 12.3398 10.696H3.938C3.75548 10.708 3.57704 10.7545 3.4123 10.8328C3.32119 10.8705 3.24388 10.9347 3.19071 11.0168C3.13755 11.0989 3.111 11.195 3.11467 11.2923C3.11467 12.4069 3.11467 13.5117 3.17418 14.6165C3.17418 15.4182 3.28331 16.2199 3.37259 17.0216C3.51414 18.2125 3.72613 19.3943 4.00745 20.5608C4.3942 22.2366 4.99761 23.8566 5.80287 25.3809C6.45577 26.614 7.29158 27.7442 8.28274 28.7343C9.66618 30.0991 11.3697 31.1065 13.2425 31.6674C14.0844 31.9263 14.9526 32.0935 15.8314 32.166C16.377 32.166 16.9325 32.2248 17.4781 32.2248C18.1409 32.2348 18.8036 32.2021 19.462 32.1269C20.4498 32.0134 21.4214 31.7905 22.3585 31.4621C23.6221 31.0138 24.7969 30.3521 25.8303 29.5067C27.0595 28.4586 28.0905 27.204 28.8756 25.8013L28.9252 25.6937L28.7367 25.5764C27.0021 24.6441 25.6932 23.0952 25.0764 21.2452C25.0632 21.1797 25.0324 21.1189 24.9872 21.0693C24.888 21.167 24.8086 21.2745 24.7193 21.3723C23.5488 22.7117 22.3783 24.0609 21.1979 25.4004C20.7448 25.9322 20.1225 26.2974 19.4322 26.4368C19.0489 26.5099 18.655 26.5099 18.2717 26.4368C17.6673 26.3115 17.092 26.0761 16.5754 25.7427L16.506 25.6741C16.5754 25.6057 16.625 25.5373 16.6845 25.4689L19.829 21.7732C21.2971 20.0622 22.8049 18.3414 24.2234 16.6207C25.007 15.7017 25.7807 14.7729 26.5743 13.8637C27.8678 12.3665 29.7055 11.4291 31.6927 11.2532C32.5257 11.1683 33.3672 11.2212 34.1825 11.4096C35.4472 11.7011 36.6172 12.3016 37.5846 13.1559C38.5519 14.0103 39.2854 15.0909 39.7176 16.2981C39.9256 16.8279 40.0559 17.3843 40.1044 17.9504C40.0999 17.9893 40.0999 18.0287 40.1044 18.0677L40.2135 19.6223ZM36.8112 18.8205C36.8112 17.9809 36.5584 17.1601 36.0849 16.4621C35.6115 15.7641 34.9385 15.2202 34.1513 14.8994C33.3641 14.5785 32.498 14.4951 31.6626 14.6596C30.8272 14.8241 30.0601 15.2292 29.4584 15.8236C28.8568 16.418 28.4476 17.1749 28.2826 17.9987C28.1176 18.8224 28.2042 19.676 28.5316 20.4512C28.8589 21.2263 29.4123 21.8884 30.1216 22.3534C30.8308 22.8185 31.6641 23.0656 32.516 23.0637C33.0809 23.0637 33.6403 22.954 34.162 22.7406C34.6838 22.5272 35.1577 22.2144 35.5566 21.8203C35.9556 21.4262 36.2718 20.9584 36.4871 20.4436C36.7023 19.9289 36.8125 19.3773 36.8112 18.8205ZM24.0349 8.193C24.0349 7.35378 23.7824 6.53344 23.3093 5.83565C22.8363 5.13787 22.164 4.59396 21.3773 4.2728C20.5907 3.95165 19.725 3.86764 18.8899 4.03136C18.0548 4.19509 17.2877 4.59919 16.6857 5.19261C16.0836 5.78603 15.6736 6.54211 15.5075 7.36521C15.3414 8.18831 15.4266 9.0415 15.7524 9.81684C16.0783 10.5922 16.6301 11.2549 17.3381 11.7211C18.046 12.1874 18.8783 12.4362 19.7298 12.4362C20.2955 12.4374 20.8559 12.3286 21.3788 12.1158C21.9017 11.903 22.3768 11.5905 22.7768 11.1963C23.1769 10.802 23.4939 10.3338 23.7098 9.81839C23.9257 9.303 24.0362 8.75058 24.0349 8.193Z" fill="#004876"/>
</svg>
