<svg width="98" height="604" viewBox="0 0 98 604" fill="none" xmlns="http://www.w3.org/2000/svg">
<path d="M-771.397 127.565L-814.699 102.565L-858 127.565M-771.397 127.565V177.565M-771.397 127.565L-814.699 152.565M-771.397 127.565L-728.096 102.565L-684.795 127.565M-771.397 127.565L-728.096 152.565M-771.397 177.565L-814.699 202.565M-771.397 177.565L-728.096 202.565M-814.699 202.565L-858 177.565V127.565M-814.699 202.565V152.565M-814.699 202.565L-771.397 227.565M-814.699 202.565L-858 227.565M-858 127.565L-814.699 152.565M-684.795 127.565V177.565M-684.795 127.565L-728.096 152.565M-684.795 127.565L-641.494 102.565L-598.192 127.565M-684.795 127.565L-641.494 152.565M-684.795 177.565L-728.096 202.565M-684.795 177.565L-641.494 202.565M-728.096 202.565V152.565M-728.096 202.565L-684.795 227.565M-728.096 202.565L-771.397 227.565M-598.192 127.565V177.565M-598.192 127.565L-641.494 152.565M-598.192 127.565L-554.891 102.565L-511.59 127.565M-598.192 127.565L-554.891 152.565M-598.192 177.565L-641.494 202.565M-598.192 177.565L-554.891 202.565M-641.494 202.565V152.565M-641.494 202.565L-684.795 227.565M-641.494 202.565L-631.865 208.124M-511.59 127.565V177.565M-511.59 127.565L-554.891 152.565M-511.59 127.565L-468.289 102.565L-424.987 127.565M-511.59 127.565L-468.289 152.565M-511.59 177.565L-554.891 202.565M-511.59 177.565L-468.289 202.565M-554.891 202.565V152.565M-554.891 202.565L-511.59 227.565M-554.891 202.565L-562.191 206.779M-424.987 127.565V177.565M-424.987 127.565L-468.289 152.565M-424.987 127.565L-381.686 102.565L-338.385 127.565M-424.987 127.565L-381.686 152.565M-424.987 177.565L-468.289 202.565M-424.987 177.565L-381.686 202.565M-468.289 202.565V152.565M-468.289 202.565L-424.987 227.565M-468.289 202.565L-511.59 227.565M-338.385 127.565V177.565M-338.385 127.565L-381.686 152.565M-338.385 127.565L-295.083 102.565L-251.782 127.565M-338.385 127.565L-295.083 152.565M-338.385 177.565L-381.686 202.565M-338.385 177.565L-295.083 202.565M-381.686 202.565V152.565M-381.686 202.565L-338.385 227.565M-381.686 202.565L-424.987 227.565M-251.782 127.565V177.565M-251.782 127.565L-295.083 152.565M-251.782 127.565L-208.481 102.565L-165.18 127.565M-251.782 127.565L-208.481 152.565M-251.782 177.565L-295.083 202.565M-251.782 177.565L-208.481 202.565M-295.083 202.565V152.565M-295.083 202.565L-251.782 227.565M-295.083 202.565L-338.385 227.565M-165.18 127.565V177.565M-165.18 127.565L-208.481 152.565M-165.18 127.565L-121.878 102.565L-78.5771 127.565M-165.18 127.565L-121.878 152.565M-165.18 177.565L-208.481 202.565M-165.18 177.565L-121.878 202.565M-208.481 202.565V152.565M-208.481 202.565L-165.18 227.565M-208.481 202.565L-251.782 227.565M-78.5771 127.565V177.565L-121.878 202.565M-78.5771 127.565L-121.878 152.565M-121.878 202.565V152.565M-121.878 202.565L-78.5771 227.565M-121.878 202.565L-165.18 227.565M-771.397 227.565V277.565M-771.397 227.565L-814.699 252.565M-771.397 227.565L-728.096 252.565M-771.397 277.565L-814.699 302.565M-771.397 277.565L-728.096 302.565M-814.699 302.565L-858 277.565V227.565M-814.699 302.565V252.565M-814.699 302.565L-771.397 327.565M-814.699 302.565L-858 327.565M-858 227.565L-814.699 252.565M-684.795 227.565L-728.096 252.565M-684.795 227.565L-676.313 232.462M-728.096 302.565V252.565M-728.096 302.565L-771.397 327.565M-728.096 302.565L-719.281 307.654M-728.096 302.565L-716.73 296.002M-511.59 227.565L-468.289 252.565M-511.59 227.565L-515.944 230.079M-424.987 227.565V277.565M-424.987 227.565L-468.289 252.565M-424.987 227.565L-381.686 252.565M-424.987 277.565L-468.289 302.565M-424.987 277.565L-381.686 302.565M-468.289 302.565V252.565M-468.289 302.565L-424.987 327.565M-468.289 302.565L-470.754 303.988M-338.385 227.565V277.565M-338.385 227.565L-381.686 252.565M-338.385 227.565L-295.083 252.565M-338.385 277.565L-381.686 302.565M-338.385 277.565L-295.083 302.565M-381.686 302.565V252.565M-381.686 302.565L-338.385 327.565M-381.686 302.565L-424.987 327.565M-251.782 227.565V277.565M-251.782 227.565L-295.083 252.565M-251.782 227.565L-208.481 252.565M-251.782 277.565L-295.083 302.565M-251.782 277.565L-208.481 302.565M-295.083 302.565V252.565M-295.083 302.565L-251.782 327.565M-295.083 302.565L-338.385 327.565M-165.18 227.565V277.565M-165.18 227.565L-208.481 252.565M-165.18 227.565L-121.878 252.565M-165.18 277.565L-208.481 302.565M-165.18 277.565L-121.878 302.565M-208.481 302.565V252.565M-208.481 302.565L-165.18 327.565M-208.481 302.565L-251.782 327.565M-78.5771 227.565V277.565L-121.878 302.565M-78.5771 227.565L-121.878 252.565M-121.878 302.565V252.565M-121.878 302.565L-78.5771 327.565M-121.878 302.565L-165.18 327.565M-771.397 327.565V377.565M-771.397 327.565L-814.699 352.565M-771.397 327.565L-728.096 352.565M-771.397 377.565L-814.699 402.565M-771.397 377.565L-728.096 402.565M-814.699 402.565L-858 377.565V327.565M-814.699 402.565V352.565M-814.699 402.565L-771.397 427.565M-814.699 402.565L-858 427.565M-858 327.565L-814.699 352.565M-728.096 402.565V352.565M-728.096 402.565L-684.795 427.565M-728.096 402.565L-771.397 427.565M-728.096 402.565L-706.446 390.065M-728.096 352.565L-719.686 347.71M-424.987 327.565V377.565M-424.987 327.565L-468.289 352.565M-424.987 327.565L-381.686 352.565M-424.987 377.565L-468.289 402.565M-424.987 377.565L-381.686 402.565M-468.289 402.565V352.565M-468.289 402.565L-424.987 427.565M-468.289 402.565L-511.59 427.565M-468.289 402.565L-485.482 392.639M-468.289 352.565L-470.278 351.416M-338.385 327.565V377.565M-338.385 327.565L-381.686 352.565M-338.385 327.565L-295.083 352.565M-338.385 377.565L-381.686 402.565M-338.385 377.565L-295.083 402.565M-381.686 402.565V352.565M-381.686 402.565L-338.385 427.565M-381.686 402.565L-424.987 427.565M-251.782 327.565V377.565M-251.782 327.565L-295.083 352.565M-251.782 327.565L-208.481 352.565M-251.782 377.565L-295.083 402.565M-251.782 377.565L-208.481 402.565M-295.083 402.565V352.565M-295.083 402.565L-251.782 427.565M-295.083 402.565L-338.385 427.565M-165.18 327.565V377.565M-165.18 327.565L-208.481 352.565M-165.18 327.565L-121.878 352.565M-165.18 377.565L-208.481 402.565M-165.18 377.565L-121.878 402.565M-208.481 402.565V352.565M-208.481 402.565L-165.18 427.565M-208.481 402.565L-251.782 427.565M-78.5771 327.565V377.565L-121.878 402.565M-78.5771 327.565L-121.878 352.565M-121.878 402.565V352.565M-121.878 402.565L-78.5771 427.565M-121.878 402.565L-165.18 427.565M-771.397 427.565V477.565M-771.397 427.565L-814.699 452.565M-771.397 427.565L-728.096 452.565M-771.397 477.565L-814.699 502.565M-771.397 477.565L-728.096 502.565M-814.699 502.565L-858 477.565V427.565M-814.699 502.565V452.565M-814.699 502.565L-771.397 527.565M-814.699 502.565L-858 527.565M-858 427.565L-814.699 452.565M-684.795 427.565V477.565M-684.795 427.565L-728.096 452.565M-684.795 427.565L-641.494 452.565M-684.795 427.565L-678.241 423.781M-684.795 477.565L-728.096 502.565M-684.795 477.565L-641.494 502.565M-728.096 502.565V452.565M-728.096 502.565L-684.795 527.565M-728.096 502.565L-771.397 527.565M-598.192 477.565L-641.494 502.565M-598.192 477.565L-554.891 502.565M-598.192 477.565V455.297C-597.025 455.329 -595.854 455.345 -594.678 455.345M-641.494 502.565V452.565M-641.494 502.565L-598.192 527.565M-641.494 502.565L-684.795 527.565M-641.494 452.565L-634.957 448.791M-511.59 427.565V477.565M-511.59 427.565L-468.289 452.565M-511.59 427.565L-513.946 426.205M-511.59 427.565L-533.24 440.065L-554.891 452.565M-511.59 477.565L-554.891 502.565M-511.59 477.565L-468.289 502.565M-554.891 502.565V452.565M-554.891 502.565L-511.59 527.565M-554.891 502.565L-598.192 527.565M-554.891 452.565L-558.947 450.223M-424.987 427.565V477.565M-424.987 427.565L-468.289 452.565M-424.987 427.565L-381.686 452.565M-424.987 477.565L-468.289 502.565M-424.987 477.565L-381.686 502.565M-468.289 502.565V452.565M-468.289 502.565L-424.987 527.565M-468.289 502.565L-511.59 527.565M-338.385 427.565V477.565M-338.385 427.565L-381.686 452.565M-338.385 427.565L-295.083 452.565M-338.385 477.565L-381.686 502.565M-338.385 477.565L-295.083 502.565M-381.686 502.565V452.565M-381.686 502.565L-338.385 527.565M-381.686 502.565L-424.987 527.565M-251.782 427.565V477.565M-251.782 427.565L-295.083 452.565M-251.782 427.565L-208.481 452.565M-251.782 477.565L-295.083 502.565M-251.782 477.565L-208.481 502.565M-295.083 502.565V452.565M-295.083 502.565L-251.782 527.565M-295.083 502.565L-338.385 527.565M-165.18 427.565V477.565M-165.18 427.565L-208.481 452.565M-165.18 427.565L-121.878 452.565M-165.18 477.565L-208.481 502.565M-165.18 477.565L-121.878 502.565M-208.481 502.565V452.565M-208.481 502.565L-165.18 527.565M-208.481 502.565L-251.782 527.565M-78.5771 427.565V477.565L-121.878 502.565M-78.5771 427.565L-121.878 452.565M-121.878 502.565V452.565M-121.878 502.565L-78.5771 527.565M-121.878 502.565L-165.18 527.565M-771.397 527.565V577.565M-771.397 527.565L-814.699 552.565M-771.397 527.565L-728.096 552.565M-771.397 577.565L-814.699 602.565M-771.397 577.565L-728.096 602.565M-814.699 602.565L-858 577.565V527.565M-814.699 602.565V552.565M-858 527.565L-814.699 552.565M-684.795 527.565V577.565M-684.795 527.565L-728.096 552.565M-684.795 527.565L-641.494 552.565M-684.795 577.565L-728.096 602.565M-684.795 577.565L-641.494 602.565M-728.096 602.565V552.565M-598.192 527.565V577.565M-598.192 527.565L-641.494 552.565M-598.192 527.565L-554.891 552.565M-598.192 577.565L-641.494 602.565M-598.192 577.565L-554.891 602.565M-641.494 602.565V552.565M-511.59 527.565V577.565M-511.59 527.565L-554.891 552.565M-511.59 527.565L-468.289 552.565M-511.59 577.565L-554.891 602.565M-511.59 577.565L-468.289 602.565M-554.891 602.565V552.565M-424.987 527.565V577.565M-424.987 527.565L-468.289 552.565M-424.987 527.565L-381.686 552.565M-424.987 577.565L-468.289 602.565M-424.987 577.565L-381.686 602.565M-468.289 602.565V552.565M-338.385 527.565V577.565M-338.385 527.565L-381.686 552.565M-338.385 527.565L-295.083 552.565M-338.385 577.565L-381.686 602.565M-338.385 577.565L-295.083 602.565M-381.686 602.565V552.565M-251.782 527.565V577.565M-251.782 527.565L-295.083 552.565M-251.782 527.565L-208.481 552.565M-251.782 577.565L-295.083 602.565M-251.782 577.565L-208.481 602.565M-295.083 602.565V552.565M-165.18 527.565V577.565M-165.18 527.565L-208.481 552.565M-165.18 527.565L-121.878 552.565M-165.18 577.565L-208.481 602.565M-165.18 577.565L-121.878 602.565M-208.481 602.565V552.565M-78.5771 527.565V577.565L-121.878 602.565M-78.5771 527.565L-121.878 552.565M-121.878 602.565V552.565M-771.397 76.7827L-814.699 51.7827L-858 76.7827M-771.397 76.7827V126.783M-771.397 76.7827L-814.699 101.783M-771.397 76.7827L-728.096 51.7827L-684.795 76.7827M-771.397 76.7827L-728.096 101.783M-771.397 126.783L-814.699 151.783M-771.397 126.783L-728.096 151.783M-814.699 151.783L-858 126.783V76.7827M-814.699 151.783V101.783M-858 76.7827L-814.699 101.783M-684.795 76.7827V126.783M-684.795 76.7827L-728.096 101.783M-684.795 76.7827L-641.494 51.7827L-598.192 76.7827M-684.795 76.7827L-641.494 101.783M-684.795 126.783L-728.096 151.783M-684.795 126.783L-641.494 151.783M-728.096 151.783V101.783M-598.192 76.7827V126.783M-598.192 76.7827L-641.494 101.783M-598.192 76.7827L-554.891 51.7827L-511.59 76.7827M-598.192 76.7827L-554.891 101.783M-598.192 126.783L-641.494 151.783M-598.192 126.783L-554.891 151.783M-641.494 151.783V101.783M-511.59 76.7827V126.783M-511.59 76.7827L-554.891 101.783M-511.59 76.7827L-468.289 51.7827L-424.987 76.7827M-511.59 76.7827L-468.289 101.783M-511.59 126.783L-554.891 151.783M-511.59 126.783L-468.289 151.783M-554.891 151.783V101.783M-424.987 76.7827V126.783M-424.987 76.7827L-468.289 101.783M-424.987 76.7827L-381.686 51.7827L-338.385 76.7827M-424.987 76.7827L-381.686 101.783M-424.987 126.783L-468.289 151.783M-424.987 126.783L-381.686 151.783M-468.289 151.783V101.783M-338.385 76.7827V126.783M-338.385 76.7827L-381.686 101.783M-338.385 76.7827L-295.083 51.7827L-251.782 76.7827M-338.385 76.7827L-295.083 101.783M-338.385 126.783L-381.686 151.783M-338.385 126.783L-295.083 151.783M-381.686 151.783V101.783M-251.782 76.7827V126.783M-251.782 76.7827L-295.083 101.783M-251.782 76.7827L-208.481 51.7827L-165.18 76.7827M-251.782 76.7827L-208.481 101.783M-251.782 126.783L-295.083 151.783M-251.782 126.783L-208.481 151.783M-295.083 151.783V101.783M-165.18 76.7827V126.783M-165.18 76.7827L-208.481 101.783M-165.18 76.7827L-121.878 51.7827L-78.5771 76.7827M-165.18 76.7827L-121.878 101.783M-165.18 126.783L-208.481 151.783M-165.18 126.783L-121.878 151.783M-208.481 151.783V101.783M-78.5771 76.7827V126.783L-121.878 151.783M-78.5771 76.7827L-121.878 101.783M-121.878 151.783V101.783M-771.397 26L-814.699 1L-858 26M-771.397 26V76M-771.397 26L-814.699 51M-771.397 26L-728.096 1L-684.795 26M-771.397 26L-728.096 51M-771.397 76L-814.699 101M-771.397 76L-728.096 101M-814.699 101L-858 76V26M-814.699 101V51M-858 26L-814.699 51M-684.795 26V76M-684.795 26L-728.096 51M-684.795 26L-641.494 1L-598.192 26M-684.795 26L-641.494 51M-684.795 76L-728.096 101M-684.795 76L-641.494 101M-728.096 101V51M-598.192 26V76M-598.192 26L-641.494 51M-598.192 26L-554.891 1L-511.59 26M-598.192 26L-554.891 51M-598.192 76L-641.494 101M-598.192 76L-554.891 101M-641.494 101V51M-511.59 26V76M-511.59 26L-554.891 51M-511.59 26L-468.289 1L-424.987 26M-511.59 26L-468.289 51M-511.59 76L-554.891 101M-511.59 76L-468.289 101M-554.891 101V51M-424.987 26V76M-424.987 26L-468.289 51M-424.987 26L-381.686 1L-338.385 26M-424.987 26L-381.686 51M-424.987 76L-468.289 101M-424.987 76L-381.686 101M-468.289 101V51M-338.385 26V76M-338.385 26L-381.686 51M-338.385 26L-295.083 1L-251.782 26M-338.385 26L-295.083 51M-338.385 76L-381.686 101M-338.385 76L-295.083 101M-381.686 101V51M-251.782 26V76M-251.782 26L-295.083 51M-251.782 26L-208.481 1L-165.18 26M-251.782 26L-208.481 51M-251.782 76L-295.083 101M-251.782 76L-208.481 101M-295.083 101V51M-165.18 26V76M-165.18 26L-208.481 51M-165.18 26L-121.878 1L-78.5771 26M-165.18 26L-121.878 51M-165.18 76L-208.481 101M-165.18 76L-121.878 101M-208.481 101V51M-78.5771 26V76L-121.878 101M-78.5771 26L-121.878 51M-121.878 101V51M-76.3763 127.565V177.565L-33.075 202.565M-76.3763 127.565L-33.075 102.565L10.2263 127.565M-76.3763 127.565L-33.075 152.565M10.2263 127.565V177.565M10.2263 127.565L-33.075 152.565M10.2263 127.565L53.5275 102.565L96.8288 127.565M10.2263 127.565L53.5275 152.565M10.2263 177.565L-33.075 202.565M10.2263 177.565L53.5275 202.565M-33.075 202.565V152.565M-33.075 202.565L10.2263 227.565M-33.075 202.565L-76.3763 227.565M96.8288 127.565V177.565L53.5275 202.565M96.8288 127.565L53.5275 152.565M53.5275 202.565V152.565M53.5275 202.565L96.8288 227.565M53.5275 202.565L10.2263 227.565M-76.3763 227.565V277.565L-33.075 302.565M-76.3763 227.565L-33.075 252.565M10.2263 227.565V277.565M10.2263 227.565L-33.075 252.565M10.2263 227.565L53.5275 252.565M10.2263 277.565L-33.075 302.565M10.2263 277.565L53.5275 302.565M-33.075 302.565V252.565M-33.075 302.565L10.2263 327.565M-33.075 302.565L-76.3763 327.565M96.8288 227.565V277.565L53.5275 302.565M96.8288 227.565L53.5275 252.565M53.5275 302.565V252.565M53.5275 302.565L96.8288 327.565M53.5275 302.565L10.2263 327.565M-76.3763 327.565V377.565L-33.075 402.565M-76.3763 327.565L-33.075 352.565M10.2263 327.565V377.565M10.2263 327.565L-33.075 352.565M10.2263 327.565L53.5275 352.565M10.2263 377.565L-33.075 402.565M10.2263 377.565L53.5275 402.565M-33.075 402.565V352.565M-33.075 402.565L10.2263 427.565M-33.075 402.565L-76.3763 427.565M96.8288 327.565V377.565L53.5275 402.565M96.8288 327.565L53.5275 352.565M53.5275 402.565V352.565M53.5275 402.565L96.8288 427.565M53.5275 402.565L10.2263 427.565M-76.3763 427.565V477.565L-33.075 502.565M-76.3763 427.565L-33.075 452.565M10.2263 427.565V477.565M10.2263 427.565L-33.075 452.565M10.2263 427.565L53.5275 452.565M10.2263 477.565L-33.075 502.565M10.2263 477.565L53.5275 502.565M-33.075 502.565V452.565M-33.075 502.565L10.2263 527.565M-33.075 502.565L-76.3763 527.565M96.8288 427.565V477.565L53.5275 502.565M96.8288 427.565L53.5275 452.565M53.5275 502.565V452.565M53.5275 502.565L96.8288 527.565M53.5275 502.565L10.2263 527.565M-76.3763 527.565V577.565L-33.075 602.565M-76.3763 527.565L-33.075 552.565M10.2263 527.565V577.565M10.2263 527.565L-33.075 552.565M10.2263 527.565L53.5275 552.565M10.2263 577.565L-33.075 602.565M10.2263 577.565L53.5275 602.565M-33.075 602.565V552.565M96.8288 527.565V577.565L53.5275 602.565M96.8288 527.565L53.5275 552.565M53.5275 602.565V552.565M-76.3763 76.7827V126.783L-33.075 151.783M-76.3763 76.7827L-33.075 51.7827L10.2263 76.7827M-76.3763 76.7827L-33.075 101.783M10.2263 76.7827V126.783M10.2263 76.7827L-33.075 101.783M10.2263 76.7827L53.5275 51.7827L96.8288 76.7827M10.2263 76.7827L53.5275 101.783M10.2263 126.783L-33.075 151.783M10.2263 126.783L53.5275 151.783M-33.075 151.783V101.783M96.8288 76.7827V126.783L53.5275 151.783M96.8288 76.7827L53.5275 101.783M53.5275 151.783V101.783M-76.3763 26V76L-33.075 101M-76.3763 26L-33.075 1L10.2263 26M-76.3763 26L-33.075 51M10.2263 26V76M10.2263 26L-33.075 51M10.2263 26L53.5275 1L96.8288 26M10.2263 26L53.5275 51M10.2263 76L-33.075 101M10.2263 76L53.5275 101M-33.075 101V51M96.8288 26V76L53.5275 101M96.8288 26L53.5275 51M53.5275 101V51" stroke="#004876" stroke-opacity="0.32"/>
</svg>
