<svg width="24" height="24" viewBox="0 0 24 24" fill="none" xmlns="http://www.w3.org/2000/svg">
<path d="M4.17773 17.8125C3.97882 17.8125 3.78806 17.8915 3.6474 18.0322C3.50675 18.1728 3.42773 18.3636 3.42773 18.5625C3.42773 18.7614 3.50675 18.9522 3.6474 19.0928C3.78806 19.2335 3.97882 19.3125 4.17773 19.3125H19.8205C20.0194 19.3125 20.2102 19.2335 20.3508 19.0928C20.4915 18.9522 20.5705 18.7614 20.5705 18.5625C20.5705 18.3636 20.4915 18.1728 20.3508 18.0322C20.2102 17.8915 20.0194 17.8125 19.8205 17.8125H4.17773ZM4.17773 11.25C3.97882 11.25 3.78806 11.329 3.6474 11.4697C3.50675 11.6103 3.42773 11.8011 3.42773 12C3.42773 12.1989 3.50675 12.3897 3.6474 12.5303C3.78806 12.671 3.97882 12.75 4.17773 12.75H19.8205C20.0194 12.75 20.2102 12.671 20.3508 12.5303C20.4915 12.3897 20.5705 12.1989 20.5705 12C20.5705 11.8011 20.4915 11.6103 20.3508 11.4697C20.2102 11.329 20.0194 11.25 19.8205 11.25H4.17773ZM4.17773 4.6875C3.97882 4.6875 3.78806 4.76652 3.6474 4.90717C3.50675 5.04782 3.42773 5.23859 3.42773 5.4375C3.42773 5.63641 3.50675 5.82718 3.6474 5.96783C3.78806 6.10848 3.97882 6.1875 4.17773 6.1875H19.8205C20.0194 6.1875 20.2102 6.10848 20.3508 5.96783C20.4915 5.82718 20.5705 5.63641 20.5705 5.4375C20.5705 5.23859 20.4915 5.04782 20.3508 4.90717C20.2102 4.76652 20.0194 4.6875 19.8205 4.6875H4.17773Z" fill="black"/>
</svg>
