<svg width="15" height="16" viewBox="0 0 15 16" fill="none" xmlns="http://www.w3.org/2000/svg">
<path d="M14.0493 14.2438L13.4942 4.39257H10.7214V3.59726C10.7214 1.61364 9.07272 0 7.04616 0C5.0196 0 3.37096 1.61372 3.37096 3.59726V4.39257H0.478081L0.000561102 14.2864L7.77038e-05 14.3035C-0.0038423 14.6596 0.140719 15.009 0.396479 15.2619C0.652319 15.515 1.00776 15.6604 1.37168 15.6604H12.6798C13.0548 15.6604 13.418 15.5074 13.676 15.2407C13.9339 14.9739 14.07 14.6106 14.0493 14.2438ZM4.32952 3.59726C4.32952 2.13106 5.54816 0.938211 7.04616 0.938211C8.54408 0.938211 9.7628 2.13106 9.7628 3.59726V4.39257H4.32944V3.59726H4.32952ZM12.9798 14.5956C12.9019 14.6759 12.7926 14.7221 12.6797 14.7221H1.3716C1.262 14.7221 1.15504 14.6784 1.07784 14.6019C1.00248 14.5276 0.959201 14.4252 0.958481 14.3203L1.39232 5.33079H3.3708V6.51886C3.3708 6.77796 3.58536 6.98796 3.85008 6.98796C4.1148 6.98796 4.32936 6.77796 4.32936 6.51886V5.33079H9.76272V6.51886C9.76272 6.77796 9.97728 6.98796 10.242 6.98796C10.5067 6.98796 10.7212 6.77796 10.7212 6.51886V5.33079H12.5869L13.0919 14.2956C13.0984 14.406 13.0574 14.5153 12.9798 14.5956Z" fill="white"/>
</svg>
